#!OML:ASF E:/inclinewalkrobotboard/Project1/Captureday1/Session1/subject1.ASF
:FULLY-SPECIFIED
:DEGREES
51
root 0 0 0 1.0401041247662337 -3.6711533526237217 1.8308348871373958
lowerback 11.978605681393402 0.8496680260880444 -0.06342569600470646
upperback -4.230973011995146 1.0788822402920955 -0.5431164901452834
thorax -11.341840839809088 0.49386787986290726 -0.7841287365342862
lowerneck -5.783559953113517 1.4866924722020336 4.564296360365509
upperneck 18.036481278902052 2.941654877261851 -8.342419023434871
head 6.590362833030798 1.0741964964906985 -3.224180982146253
rclavicle 1.8428976615135322E-16 -2.036992241556807E-15
rhumerus 19.88097348997163 14.342336910120482 -47.73959461291816
rradius 72.22686683374637
rwrist 27.13123699884405
rhand -34.634614821688686 -57.11053516478524
rfingers 7.125020000000035
rthumb -7.787394671246203 -87.16515479040935
lclavicle -1.340611588841874E-16 -4.492495173943899E-16
lhumerus 21.02757829853698 -12.451711174714395 45.30578945261284
lradius 70.02678360143038
lwrist -22.263633286025385
lhand -44.78509719862364 -70.25723921216908
lfingers 7.125020000000026
lthumb -17.573113253323278 -40.935724265452734
rfemur -24.69736842870712 -2.314892817670877 17.111108955138942
rtibia 54.509153334378645
rfoot -28.99352672257289 -16.654594890380878
rtoes -18.49511101777705
lfemur -25.903817626364955 2.438102181319059 -18.064777806433742
ltibia 53.197159155156065
lfoot -30.791670146009675 -3.4581077372753715
ltoes -20.86827285777277
52
root 0 0 0 1.039889946885584 -3.6715403883637423 1.830693408266093
lowerback 11.978630152226804 0.8496120723672173 -0.06325443018399834
upperback -4.2308293738199145 1.0788389001929266 -0.5430191534635516
thorax -11.341696993084103 0.4938429229895567 -0.7841093335664877
lowerneck -5.782520971387893 1.4866038004744677 4.564490319135497
upperneck 18.035839706321614 2.941589794869797 -8.342934649084365
head 6.58997774833274 1.0741602128278016 -3.224376987040073
rclavicle 1.8607627656996335E-16 -2.0360531814724304E-15
rhumerus 19.882249039816102 14.34356644036882 -47.73909249434376
rradius 72.22769145466562
rwrist 27.130993179570865
rhand -34.63312682458687 -57.10887013078754
rfingers 7.125020000000035
rthumb -7.785977473398438 -87.1634680463678
lclavicle -1.3194290003422606E-16 -4.486008377438196E-16
lhumerus 21.02808067515212 -12.452609267073438 45.30481655327962
lradius 70.02733792629832
lwrist -22.263821083405013
lhand -44.78455946563738 -70.25398537085132
lfingers 7.125020000000026
lthumb -17.57259514265866 -40.932441413152034
rfemur -24.697417449332065 -2.314932820907535 17.11113021886817
rtibia 54.50941050602077
rfoot -28.993677961791526 -16.654623559495437
rtoes -18.495084603186648
lfemur -25.90333896462413 2.4386010594742986 -18.064510544898916
ltibia 53.197920915214986
lfoot -30.79127592702031 -3.457905858981732
ltoes -20.869844108839708
53
root 0 0 0 1.0395019519849318 -3.6723915362122206 1.8303759194866538
lowerback 11.978656715324053 0.8495023671259985 -0.06294079498931113
upperback -4.230572703395568 1.0787553079668033 -0.5428195409743495
thorax -11.34145109405741 0.4937941146165846 -0.7840531474393286
lowerneck -5.7803986502859575 1.4864539639017997 4.564860095337739
upperneck 18.034618535396874 2.941515895926614 -8.343941454527638
head 6.589223912511947 1.0741006944929419 -3.2247469007164167
rclavicle 1.7999052996957062E-16 -2.0270947351266223E-15
rhumerus 19.885428037941505 14.347092792771232 -47.73758639513189
rradius 72.22945147617146
rwrist 27.129366543050214
rhand -34.6269991835948 -57.10086663494869
rfingers 7.125020000000035
rthumb -7.779995642855313 -87.15515799594336
lclavicle -1.3821682149997295E-16 -4.386324114370078E-16
lhumerus 21.030044732726616 -12.455853201284093 45.302210129455915
lradius 70.02858183730227
lwrist -22.263613740095554
lhand -44.78267947500172 -70.23975864851252
lfingers 7.125020000000026
lthumb -17.570659664553563 -40.91844504555793
rfemur -24.695974600300868 -2.3136932333282973 17.111368004151654
rtibia 54.5026135967146
rfoot -28.994836873756466 -16.654424910558966
rtoes -18.494131033311525
lfemur -25.89852364698491 2.438744691756666 -18.0635668020204
ltibia 53.19349157974498
lfoot -30.795042138066428 -3.4556373005801846
ltoes -20.880172420786145
54
root 0 0 0 1.039447148856693 -3.6724085393529076 1.8304097780553872
lowerback 11.978637257952133 0.8495096336004975 -0.06291095485842058
upperback -4.230560199219947 1.078763568175772 -0.542822322669457
thorax -11.341404090416692 0.4937992129214484 -0.7840703759808288
lowerneck -5.780374449904107 1.4864518576541759 4.564923924192356
upperneck 18.034610708130334 2.94150050928381 -8.344027126932476
head 6.589212663055092 1.0741068766591984 -3.224793147812747
rclavicle 2.0466069829871267E-16 -2.0351363243443675E-15
rhumerus 19.886621195347075 14.347909758078542 -47.73810632529478
rradius 72.23080346342721
rwrist 27.129941667914412
rhand -34.62932454378577 -57.104971740281925
rfingers 7.125020000000035
rthumb -7.782355580892076 -87.15950205324638
lclavicle -1.134839197615032E-16 -4.504247294658226E-16
lhumerus 21.029229443252923 -12.454836144009976 45.30218551870899
lradius 70.0288579909237
lwrist -22.264571662652088
lhand -44.783040940514034 -70.24562163069976
lfingers 7.125020000000026
lthumb -17.571130951809543 -40.92396960225989
rfemur -24.69683236043946 -2.3147227556151253 17.11120175124718
rtibia 54.50821158064644
rfoot -28.994789255716 -16.65465337207403
rtoes -18.49643022901975
lfemur -25.900310066112148 2.439232171124334 -18.063792793858973
ltibia 53.196359258715496
lfoot -30.79179934141061 -3.4571579344725767
ltoes -20.87727665547171
